<svg width="57" height="57" viewBox="0 0 57 57" fill="none" xmlns="http://www.w3.org/2000/svg">
<path d="M3.90088 0.445312L8.3785 50.7135L28.4701 56.3156L48.6178 50.693L53.099 0.445312H3.90088ZM43.7969 11.962L42.3064 28.708L42.3109 28.7984L42.3046 29.0063V29.0045L41.2457 40.7136L41.129 41.7538L28.4999 45.2469V45.2473L28.4901 45.2558L15.8829 41.7431L15.0292 32.0625H21.2115L21.6501 36.985L28.5017 38.8419L28.4999 38.8455V38.8446L35.3769 36.9614L36.1036 28.9453H21.7276L21.6043 27.5902L21.3233 24.4156L21.1759 22.7109H36.6501L37.2129 16.4766H13.6443L13.521 15.1224L13.2404 11.9468L13.0926 10.2422H43.9443L43.7969 11.962Z" fill="#1572B6"/>
</svg>
