<svg width="56" height="56" viewBox="0 0 56 56" fill="none" xmlns="http://www.w3.org/2000/svg">
<path d="M19.5083 1.84168C13.913 3.78273 9.08766 7.46691 5.74099 12.3531C2.39433 17.2392 0.702746 23.0698 0.914719 28.9884C1.12669 34.907 3.23105 40.6016 6.91868 45.2359C10.6063 49.8701 15.6829 53.1996 21.4027 54.7354C26.0398 55.932 30.8982 55.9845 35.5602 54.8886C39.7834 53.9399 43.688 51.9108 46.8914 48.9998C50.2255 45.8776 52.6456 41.9057 53.8914 37.5111C55.2451 32.732 55.4861 27.7064 54.5958 22.8198H28.5558V33.6217H43.6364C43.335 35.3445 42.6891 36.9888 41.7374 38.4562C40.7857 39.9236 39.5478 41.1839 38.0977 42.1617C36.2564 43.3803 34.1804 44.1999 32.0033 44.5679C29.8199 44.974 27.5804 44.974 25.397 44.5679C23.184 44.1109 21.0905 43.1975 19.2502 41.8861C16.2933 39.793 14.0731 36.8195 12.9064 33.3898C11.7203 29.8959 11.7203 26.1081 12.9064 22.6142C13.7369 20.1651 15.1098 17.9353 16.9227 16.0911C18.9972 13.9418 21.6237 12.4055 24.514 11.6508C27.4042 10.896 30.4465 10.9519 33.307 11.8123C35.5418 12.498 37.5853 13.6965 39.2745 15.3123C40.975 13.6206 42.6725 11.9246 44.367 10.2242C45.242 9.30981 46.1958 8.43918 47.0577 7.50293C44.4787 5.10333 41.4518 3.23602 38.1502 2.00793C32.1376 -0.175236 25.5588 -0.233906 19.5083 1.84168V1.84168Z" fill="white"/>
<path d="M19.5081 1.84186C25.5582 -0.235144 32.137 -0.178018 38.15 2.00373C41.4522 3.24015 44.4778 5.11646 47.0531 7.52498C46.1781 8.46123 45.255 9.33623 44.3625 10.2462C42.665 11.9408 40.969 13.6296 39.2744 15.3125C37.5852 13.6967 35.5416 12.4981 33.3069 11.8125C30.4473 10.949 27.4051 10.8899 24.5141 11.6416C21.6231 12.3933 18.995 13.9268 16.9181 16.0737C15.1053 17.918 13.7324 20.1478 12.9019 22.5969L3.83252 15.575C7.07881 9.13744 12.6995 4.21321 19.5081 1.84186V1.84186Z" fill="#E33629"/>
<path d="M1.42628 22.5314C1.91339 20.1154 2.7227 17.7758 3.83253 15.5752L12.9019 22.6146C11.7158 26.1085 11.7158 29.8962 12.9019 33.3902C9.88023 35.7235 6.85711 38.0685 3.83253 40.4252C1.05506 34.8966 0.207982 28.5974 1.42628 22.5314V22.5314Z" fill="#F8BD00"/>
<path d="M28.5557 22.8154H54.5957C55.4859 27.702 55.245 32.7277 53.8913 37.5067C52.6454 41.9013 50.2254 45.8732 46.8913 48.9954C43.9644 46.7117 41.0244 44.4454 38.0975 42.1617C39.5486 41.1829 40.7871 39.9212 41.7389 38.4523C42.6906 36.9833 43.336 35.3373 43.6363 33.6129H28.5557C28.5513 30.0167 28.5557 26.4161 28.5557 22.8154V22.8154Z" fill="#587DBD"/>
<path d="M3.82812 40.4251C6.85271 38.0918 9.87583 35.7468 12.8975 33.3901C14.0665 36.821 16.2899 39.7947 19.25 41.8864C21.096 43.1917 23.194 44.0977 25.41 44.5464C27.5934 44.9525 29.8329 44.9525 32.0163 44.5464C34.1934 44.1784 36.2693 43.3587 38.1106 42.1401C41.0375 44.4239 43.9775 46.6901 46.9044 48.9739C43.7014 51.8864 39.7968 53.9171 35.5731 54.867C30.9112 55.963 26.0528 55.9104 21.4156 54.7139C17.7481 53.7346 14.3223 52.0084 11.3531 49.6433C8.21068 47.1478 5.6439 44.0035 3.82812 40.4251V40.4251Z" fill="#319F43"/>
</svg>
