<svg width="64" height="64" viewBox="0 0 64 64" fill="none" xmlns="http://www.w3.org/2000/svg">
<path d="M9.78467 13.5L13.8282 58.4595L31.9727 63.3005L50.1677 58.551L54.2157 13.5H9.78467ZM45.8052 23.7355L45.5517 26.6525L45.4402 28H24.1557L24.6642 34H44.9342L44.7987 35.1155L43.4912 49.57L43.3952 50.415L32.0002 53.482V53.4795L31.9867 53.4855L20.5982 50.5275L19.8252 42H25.4092L25.8047 46.23L31.9972 47.7995L32.0002 47.6825V47.6885L38.2062 46.364L38.8542 39.5H19.5767L18.2097 24.082L18.0762 22.5H45.9382L45.8052 23.7355ZM13.9782 0.813477H16.7892V3.59148H19.3612V0.813477H22.1727V9.22448H19.3612V6.40798H16.7897V9.22448H13.9782V0.813477ZM25.8692 3.60298H23.3942V0.813477H31.1567V3.60298H28.6807V9.22448H25.8692V3.60298ZM32.3887 0.813477H35.3197L37.1232 3.76898L38.9247 0.813477H41.8572V9.22448H39.0567V5.05548L37.1232 8.04598H37.0742L35.1392 5.05548V9.22448H32.3882V0.813477H32.3887ZM43.2567 0.813477H46.0687V6.44448H50.0222V9.22498H43.2567V0.813477Z" fill="#E44D26"/>
</svg>
