<svg width="57" height="57" viewBox="0 0 57 57" fill="none" xmlns="http://www.w3.org/2000/svg">
<path d="M0.626953 0.626953H56.3729V56.3734H0.626953V0.626953Z" fill="#F0DB4F"/>
<path d="M51.8109 43.0778C51.4026 40.5346 49.7442 38.3984 44.832 36.4066C43.1255 35.6224 41.2232 35.0608 40.6563 33.7676C40.455 33.0151 40.4283 32.5911 40.5556 32.1356C40.9212 30.6571 42.686 30.1962 44.0847 30.6202C44.9856 30.9221 45.8384 31.6163 46.3527 32.7238C48.7583 31.1661 48.7534 31.1764 50.4331 30.1058C49.8181 29.1524 49.4899 28.7125 49.0874 28.3046C47.6406 26.6885 45.6692 25.8562 42.5163 25.9199L40.874 26.1323C39.3003 26.53 37.8005 27.356 36.921 28.4635C34.2821 31.4578 35.0347 36.6982 38.2458 38.8549C41.4093 41.2293 46.0566 41.7695 46.6502 43.9898C47.2278 46.708 44.6525 47.5879 42.0929 47.2753C40.2065 46.883 39.1574 45.9242 38.0231 44.1808C35.9355 45.389 35.9355 45.389 33.7891 46.6234C34.2981 47.7362 34.8329 48.2399 35.6861 49.204C39.7242 53.2999 49.8293 53.0987 51.6417 46.899C51.7152 46.6862 52.2032 45.2665 51.8109 43.0778ZM30.9324 26.2481H25.7183L25.6969 39.7286C25.6969 42.5955 25.8452 45.2238 25.3789 46.0293C24.6161 47.6137 22.6394 47.4174 21.7385 47.1101C20.8216 46.6594 20.3554 46.0186 19.8152 45.1129C19.6669 44.8528 19.5556 44.6515 19.5182 44.6359L15.2788 47.2321C15.9837 48.6789 17.0222 49.9347 18.3524 50.7505C20.3393 51.9431 23.0099 52.3087 25.8029 51.6674C27.6206 51.1379 29.189 50.0411 30.0102 48.3717C31.1974 46.183 30.9427 43.5338 30.932 40.6036C30.9587 35.8232 30.9324 31.0437 30.9324 26.2481Z" fill="#323330"/>
</svg>
