<svg width="64" height="64" viewBox="0 0 64 64" fill="none" xmlns="http://www.w3.org/2000/svg">
<path fill-rule="evenodd" clip-rule="evenodd" d="M44.0191 21.4058C44.8216 23.7273 45.3996 26.0973 45.5896 28.5538C45.8256 31.6013 45.7176 34.6273 45.0751 37.6248C45.0576 37.7073 45.0206 37.7848 44.9931 37.8648C44.7916 37.8653 44.5861 37.8403 44.3891 37.8708C42.7246 38.1323 41.0616 38.4033 39.3986 38.6728C37.6796 38.9513 35.9581 39.2188 34.2421 39.5163C33.6341 39.6213 32.8816 39.4958 32.6361 40.3368C32.6291 40.3598 32.5591 40.3638 32.5186 40.3768L32.6016 35.3513L32.5171 23.2253L33.3181 23.0878C34.6281 22.8733 35.9381 22.6558 37.2491 22.4473C38.8136 22.1988 40.3796 21.9573 41.9451 21.7148C42.6356 21.6073 43.3271 21.5088 44.0191 21.4058Z" fill="#439934"/>
<path fill-rule="evenodd" clip-rule="evenodd" d="M30.8644 55.0272C30.0194 54.3007 29.1449 53.6062 28.3349 52.8422C23.9764 48.7312 20.7884 43.8927 19.2184 38.0592C18.7859 36.4537 18.4974 34.8222 18.4049 33.1632C18.3399 32.0022 18.2459 30.8307 18.3279 29.6757C18.5464 26.6037 18.9904 23.5612 19.8914 20.6022L19.9409 20.5332C20.0284 20.6497 20.1544 20.7527 20.1989 20.8842C21.0784 23.4742 21.9514 26.0662 22.8199 28.6597C25.5489 36.8097 28.2744 44.9617 31.0079 53.1097C31.0614 53.2687 31.1999 53.3992 31.2994 53.5427L30.8644 55.0272Z" fill="#45A538"/>
<path fill-rule="evenodd" clip-rule="evenodd" d="M44.019 21.4062C43.327 21.5092 42.635 21.6077 41.9445 21.7142C40.379 21.9567 38.813 22.1982 37.2485 22.4467C35.9375 22.6552 34.6275 22.8727 33.3175 23.0872L32.5165 23.2247L32.5105 22.7022C32.484 22.2727 32.4385 21.8437 32.4335 21.4142C32.399 18.6752 32.3775 15.9362 32.3435 13.1972C32.3225 11.4827 32.291 9.76867 32.256 8.05467C32.2345 6.98967 32.2115 5.92417 32.1635 4.86067C32.1375 4.28917 32.0455 3.72067 32.008 3.14917C31.987 2.82067 32.016 2.48967 32.0225 2.15967C32.431 2.95117 32.8305 3.74867 33.2505 4.53417C33.914 5.77617 34.971 6.69117 35.9225 7.68967C39.684 11.6357 42.3545 16.2237 44.019 21.4062Z" fill="#46A037"/>
<path fill-rule="evenodd" clip-rule="evenodd" d="M32.5182 40.3764C32.5587 40.3634 32.6292 40.3594 32.6357 40.3364C32.8812 39.4954 33.6337 39.6209 34.2417 39.5159C35.9577 39.2189 37.6792 38.9509 39.3982 38.6724C41.0612 38.4029 42.7242 38.1319 44.3887 37.8704C44.5857 37.8394 44.7912 37.8649 44.9927 37.8644C44.6817 38.9744 44.4367 40.1084 44.0422 41.1879C43.5942 42.4124 43.0522 43.6074 42.4767 44.7789C41.6152 46.5262 40.5488 48.1649 39.3002 49.6604C38.3407 50.8144 37.2712 51.8809 36.1992 52.9344C35.6067 53.5169 34.9082 53.9914 34.2582 54.5149L34.0897 54.3999L33.4827 53.8809L32.8547 52.5044C32.4258 50.8986 32.1917 49.2471 32.1577 47.5854L32.1692 47.3049L32.2547 46.0919C32.2832 45.6779 32.3212 45.2644 32.3387 44.8494C32.4032 43.3584 32.4592 41.8674 32.5182 40.3764Z" fill="#409433"/>
<path fill-rule="evenodd" clip-rule="evenodd" d="M32.5182 40.3763C32.4592 41.8673 32.4031 43.3583 32.3396 44.8498C32.3221 45.2648 32.2841 45.6783 32.2556 46.0923L31.8731 46.2368C31.0236 43.7358 30.1736 41.2613 29.3421 38.7803C27.9671 34.6758 26.6086 30.5648 25.2356 26.4593C24.1267 23.1456 23.01 19.8344 21.8856 16.5258C21.8331 16.3708 21.6821 16.2498 21.5771 16.1128L24.0251 11.6118C24.1091 11.7578 24.2201 11.8943 24.2731 12.0513C25.4069 15.4024 26.5349 18.7554 27.6571 22.1103C29.1151 26.4753 30.5641 30.8438 32.0211 35.2093C32.0791 35.3838 32.1751 35.5448 32.2666 35.7403L32.6017 35.3503L32.5182 40.3763Z" fill="#4FAA41"/>
<path fill-rule="evenodd" clip-rule="evenodd" d="M21.5774 16.1133C21.6824 16.2503 21.8329 16.3713 21.8859 16.5263C23.0103 19.8348 24.127 23.146 25.2359 26.4598C26.6089 30.5653 27.9674 34.6763 29.3424 38.7808C30.1734 41.2613 31.0234 43.7363 31.8734 46.2373L32.2559 46.0928L32.1704 47.3058L32.0929 47.5853C31.9599 48.9133 31.8479 50.2443 31.6859 51.5693C31.6044 52.2333 31.4314 52.8853 31.2999 53.5428C31.2009 53.3993 31.0619 53.2688 31.0084 53.1098C28.2749 44.9613 25.5494 36.8098 22.8204 28.6598C21.9522 26.0661 21.0785 23.4743 20.1994 20.8843C20.1549 20.7528 20.0294 20.6498 19.9414 20.5333L21.5774 16.1133Z" fill="#4AA73C"/>
<path fill-rule="evenodd" clip-rule="evenodd" d="M32.6009 35.3509L32.2659 35.7409C32.1744 35.5454 32.0784 35.3839 32.0204 35.2099C30.5639 30.8444 29.1144 26.4759 27.6564 22.1109C26.5342 18.7559 25.4062 15.4029 24.2724 12.0519C24.2199 11.8949 24.1089 11.7579 24.0244 11.6124L27.0519 7.62988C27.1474 7.75738 27.2834 7.87088 27.3329 8.01438C28.1734 10.4749 29.0064 12.9384 29.8344 15.4034C30.6079 17.7054 31.3699 20.0109 32.1524 22.3099C32.2049 22.4639 32.3874 22.5729 32.5094 22.7029L32.5154 23.2254C32.5444 27.2664 32.5729 31.3089 32.6009 35.3509Z" fill="#57AE47"/>
<path fill-rule="evenodd" clip-rule="evenodd" d="M32.5107 22.7019C32.3887 22.5719 32.2062 22.4629 32.1537 22.3089C31.3712 20.0099 30.6092 17.7044 29.8357 15.4024C29.0077 12.9374 28.1747 10.4744 27.3342 8.01336C27.2847 7.86986 27.1487 7.75636 27.0532 7.62886C28.0377 6.66486 28.9917 5.66636 30.0157 4.74686C30.9262 3.92986 31.6582 3.05386 31.6917 1.76286C31.6932 1.70936 31.7212 1.65586 31.7642 1.50586L32.0237 2.15886C32.0172 2.48936 31.9877 2.81986 32.0092 3.14836C32.0467 3.71986 32.1387 4.28836 32.1647 4.85986C32.2127 5.92336 32.2357 6.98886 32.2572 8.05386C32.2917 9.76786 32.3232 11.4819 32.3447 13.1964C32.3782 15.9354 32.4002 18.6744 32.4347 21.4134C32.4387 21.8439 32.4837 22.2724 32.5107 22.7019Z" fill="#60B24F"/>
<path fill-rule="evenodd" clip-rule="evenodd" d="M31.2988 53.5426C31.4303 52.8851 31.6033 52.2326 31.6848 51.5691C31.8473 50.2446 31.9588 48.9131 32.0918 47.5851L32.1248 47.5801L32.1578 47.5856C32.1918 49.2473 32.4258 50.8988 32.8548 52.5046C32.7668 52.6206 32.6423 52.7241 32.5958 52.8551C32.2323 53.8801 31.8898 54.9131 31.5243 55.9381C31.4743 56.0781 31.3353 56.1871 31.2373 56.3101L30.8638 55.0271L31.2988 53.5426Z" fill="#A9AA88"/>
<path fill-rule="evenodd" clip-rule="evenodd" d="M31.2378 56.3104C31.3358 56.1874 31.4753 56.0784 31.5248 55.9384C31.8903 54.9134 32.2333 53.8809 32.5963 52.8554C32.6428 52.7244 32.7668 52.6209 32.8553 52.5049L33.4828 53.8819C33.3588 54.0579 33.1878 54.2164 33.1188 54.4124L31.9168 57.9419C31.8673 58.0834 31.6983 58.1834 31.5853 58.3029L31.2378 56.3104Z" fill="#B6B598"/>
<path fill-rule="evenodd" clip-rule="evenodd" d="M31.5854 58.3023C31.6989 58.1833 31.8674 58.0828 31.9169 57.9413L33.1189 54.4118C33.1874 54.2163 33.359 54.0573 33.483 53.8813L34.0904 54.3998C33.7969 54.6898 33.6339 55.0248 33.7319 55.4483L33.5474 56.0523C33.4634 56.1558 33.3419 56.2458 33.3004 56.3643C32.8809 57.5658 32.4804 58.7738 32.0579 59.9753C32.0044 60.1278 31.8559 60.2473 31.7509 60.3813C31.6964 59.6878 31.6409 58.9958 31.5854 58.3023Z" fill="#C2C1A7"/>
<path fill-rule="evenodd" clip-rule="evenodd" d="M31.7514 60.3817C31.8559 60.2472 32.0044 60.1277 32.0584 59.9757C32.4809 58.7747 32.8814 57.5667 33.3009 56.3647C33.3424 56.2467 33.4634 56.1562 33.5479 56.0527L33.2934 58.8252C33.2254 58.9037 33.1269 58.9722 33.0944 59.0637C32.8069 59.8707 32.5359 60.6837 32.2474 61.4907C32.1879 61.6572 32.0739 61.8042 31.9849 61.9597C31.9059 61.8562 31.7644 61.7562 31.7579 61.6482C31.7324 61.2277 31.7499 60.8042 31.7514 60.3817Z" fill="#CECDB7"/>
<path fill-rule="evenodd" clip-rule="evenodd" d="M31.9844 61.9597C32.0734 61.8037 32.1874 61.6567 32.2469 61.4907C32.5359 60.6842 32.8064 59.8712 33.0939 59.0637C33.1264 58.9722 33.2254 58.9042 33.2929 58.8252L33.2989 60.6452L32.6899 62.2072L31.9844 61.9597Z" fill="#DBDAC7"/>
<path fill-rule="evenodd" clip-rule="evenodd" d="M32.6899 62.2075L33.2989 60.6455L33.4244 62.4935L32.6899 62.2075Z" fill="#EBE9DC"/>
<path fill-rule="evenodd" clip-rule="evenodd" d="M33.7322 55.4489C33.6342 55.0254 33.7967 54.6899 34.0907 54.4004L34.2592 54.5154L33.7322 55.4489Z" fill="#CECDB7"/>
<path fill-rule="evenodd" clip-rule="evenodd" d="M32.1578 47.5862L32.1248 47.5807L32.0918 47.5857L32.1693 47.3062L32.1578 47.5862Z" fill="#4FAA41"/>
</svg>
