<svg width="63" height="61" viewBox="0 0 63 61" fill="none" xmlns="http://www.w3.org/2000/svg">
<path d="M36.9326 0.143066C36.5037 0.143066 36.0748 0.238379 35.6936 0.381348C36.5037 0.905566 36.9326 1.62041 37.1709 2.43057C37.1709 2.52588 37.2186 2.62119 37.2186 2.7165C37.2186 2.81182 37.2662 2.90713 37.2662 3.00244C37.3139 4.38447 36.885 4.5751 36.599 5.38525C36.1225 6.43369 36.2654 7.57744 36.8373 8.48291C36.885 8.57822 36.9326 8.72119 37.0279 8.8165C36.4084 4.81338 39.7443 4.2415 40.3639 3.00244C40.4115 1.90635 39.5061 1.1915 38.7912 0.667285C38.0764 0.238379 37.5045 0.143066 36.9326 0.143066ZM41.9365 1.00088C41.8889 1.38213 41.9365 1.28682 41.8889 1.47744C41.8889 1.62041 41.8889 1.76338 41.8412 1.90635C41.7936 2.04932 41.7936 2.14463 41.7459 2.2876C41.6982 2.43057 41.6506 2.52588 41.6029 2.66885C41.5553 2.76416 41.5076 2.85947 41.46 3.00244C41.4123 3.0501 41.3646 3.14541 41.317 3.19307C41.2693 3.24072 41.2693 3.28838 41.2217 3.33604C41.1264 3.43135 41.0787 3.57432 40.9834 3.66963L40.6975 3.95557C40.6021 4.05088 40.5068 4.14619 40.4115 4.19385C40.0779 4.43213 39.6967 4.62275 39.3631 4.86103C39.2678 4.95635 39.1248 5.004 39.0295 5.09932C38.9342 5.19463 38.8389 5.24228 38.7436 5.3376L38.4576 5.62354C38.3623 5.71885 38.267 5.81416 38.2193 5.95713C38.124 6.05244 38.0764 6.19541 37.9811 6.29072C37.9334 6.43369 37.8857 6.529 37.7904 6.67197C37.7428 6.81494 37.6951 6.91025 37.6475 7.05322C37.5998 7.19619 37.5521 7.33916 37.5521 7.43447C37.5521 7.48213 37.5521 7.57744 37.5045 7.6251C37.5045 7.67275 37.5045 7.76807 37.4568 7.81572V8.48291C37.4568 8.62588 37.4568 8.72119 37.5045 8.86416C37.5045 9.00713 37.5522 9.10244 37.5998 9.24541C37.6475 9.38838 37.6951 9.48369 37.7428 9.62666C37.7904 9.72197 37.8381 9.76963 37.8381 9.86494L34.2162 8.48291C33.5967 8.29228 33.0248 8.14932 32.4053 8.00635C32.0717 7.91104 31.7381 7.86338 31.4045 7.76807C30.4514 7.57744 29.4982 7.43447 28.5451 7.33916H28.4498C27.4967 7.24385 26.5912 7.19619 25.6381 7.19619C24.9232 7.19619 24.2561 7.24385 23.5889 7.2915C22.6357 7.33916 21.6826 7.48213 20.7295 7.6251L20.0146 7.76807C19.5381 7.86338 19.0615 7.95869 18.585 8.10166C18.3467 8.14932 18.1084 8.24463 17.8701 8.29228C17.6318 8.3876 17.3936 8.48291 17.2029 8.57822C17.0123 8.67354 16.8693 8.72119 16.6787 8.8165C16.6311 8.8165 16.6311 8.8165 16.5834 8.86416C16.4404 8.95947 16.2975 9.00713 16.1545 9.10244C16.1068 9.10244 16.0592 9.1501 16.0592 9.1501C15.8686 9.24541 15.7256 9.34072 15.5826 9.38838C15.4873 9.43604 15.3443 9.48369 15.249 9.53135C15.2014 9.579 15.1537 9.579 15.1061 9.62666C14.9631 9.72197 14.8201 9.76963 14.6771 9.86494C14.5342 9.96025 14.3912 10.0079 14.2959 10.1032C14.2006 10.1985 14.0576 10.2462 13.9623 10.3415C13.9623 10.3415 13.9146 10.3415 13.9146 10.3892C13.8193 10.4368 13.724 10.5321 13.6287 10.6274L13.5811 10.6751C13.4857 10.7228 13.4381 10.8181 13.3428 10.8657C13.2951 10.8657 13.2951 10.9134 13.2475 10.9134C13.1521 10.961 13.1045 11.0563 13.0092 11.104C13.0092 11.1517 12.9615 11.1517 12.9615 11.1517L12.6756 11.4376L12.6279 11.4853L12.342 11.7712C12.342 11.7712 12.342 11.8188 12.2943 11.8188L12.0561 12.0571C12.0084 12.1048 11.9607 12.1048 11.9607 12.1524L11.6748 12.4384C11.6748 12.486 11.6271 12.486 11.6271 12.5337L11.2459 12.9149L11.1982 12.9626C10.96 13.2485 10.674 13.4868 10.3881 13.7251C10.1021 13.9634 9.81621 14.2017 9.48262 14.4399C9.14902 14.6782 8.86309 14.8688 8.52949 15.0595C8.1959 15.2501 7.8623 15.3931 7.52871 15.536C7.19512 15.679 6.86152 15.822 6.52793 15.9173C5.86074 16.0603 5.19355 16.3462 4.62168 16.3938C4.62168 16.1556 4.47871 16.2032 4.33574 16.2032C4.19277 16.2509 4.0498 16.2509 3.95449 16.2985C3.81152 16.3462 3.71621 16.3938 3.57324 16.4415C3.43027 16.4892 3.33496 16.5368 3.19199 16.6321C3.09668 16.7274 2.95371 16.7751 2.8584 16.8704C2.76309 16.9657 2.62012 17.061 2.5248 17.1563C2.42949 17.2517 2.28652 17.347 2.19121 17.4423C2.0959 17.5376 2.00059 17.6329 1.90527 17.7759C1.80996 17.9188 1.71465 18.0142 1.66699 18.1571C1.57168 18.2524 1.52402 18.3954 1.42871 18.5384C1.38105 18.6813 1.28574 18.8243 1.23809 18.9673L1.09512 19.3962C1.04746 19.5392 1.04746 19.6345 0.999805 19.7774V19.8251C0.952148 19.9681 0.952148 20.1587 0.952148 20.254C0.999805 20.2063 0.999805 20.3017 0.999805 20.397V20.5876C0.999805 20.6829 1.04746 20.7782 1.04746 20.8735C1.09512 20.9688 1.09512 21.0642 1.14277 21.1595C1.19043 21.2548 1.23809 21.3501 1.3334 21.4454C1.38105 21.5407 1.47637 21.636 1.52402 21.7313C1.61934 21.8267 1.71465 21.922 1.80996 21.9696C1.90527 22.0649 2.00059 22.1603 2.0959 22.2079C2.47715 22.5415 2.57246 22.6368 3.04902 22.9228C3.14434 22.9704 3.19199 23.0181 3.2873 23.0657H3.33496V23.161C3.33496 23.304 3.38262 23.3993 3.43027 23.5423C3.47793 23.6853 3.52559 23.8282 3.57324 23.9235L3.71621 24.2095C3.71621 24.2571 3.76387 24.2571 3.76387 24.3048C3.81152 24.4478 3.90684 24.5431 3.95449 24.6384C4.0498 24.7337 4.09746 24.8767 4.19277 24.972L4.47871 25.2579L4.76465 25.5438H4.8123C4.90762 25.6392 5.00293 25.6868 5.09824 25.7821C5.19355 25.8774 5.33652 25.9251 5.43184 25.9728C5.52715 26.0204 5.67012 26.1157 5.81309 26.1634C5.9084 26.211 6.00371 26.2587 6.14668 26.2587C6.14668 26.2587 6.19434 26.2587 6.19434 26.3063C6.24199 26.3063 6.33731 26.354 6.38496 26.354C6.33731 27.2118 6.3373 28.022 6.43262 28.3079C6.57559 28.6415 7.29043 27.6407 7.95762 26.5446C7.86231 27.6407 7.81465 28.9274 7.95762 29.3087C8.14824 29.6899 9.05371 28.4509 9.91152 27.1165C21.0631 24.5431 31.2615 32.2634 32.3576 43.1767C32.167 41.461 30.0701 40.5079 29.0693 40.7462C28.5928 41.8899 27.7826 43.4149 26.4959 44.3204C26.5912 43.272 26.5436 42.2235 26.3529 41.1751C26.0193 42.6048 25.3521 43.9868 24.399 45.1306C22.9217 45.2259 21.3967 44.511 20.6342 43.4149C20.5865 43.3673 20.5389 43.272 20.4912 43.2243C20.4436 43.129 20.3959 42.986 20.3482 42.8907C20.3006 42.7954 20.2529 42.6524 20.2529 42.5571V42.2235V41.9853C20.2529 41.8899 20.3006 41.747 20.3482 41.6517C20.3959 41.5563 20.3959 41.4134 20.4436 41.3181C20.4912 41.2228 20.5389 41.0798 20.6342 40.9845C20.9201 40.222 20.9201 39.6024 20.3959 39.2688L20.11 39.1259C20.0623 39.1259 19.967 39.0782 19.9193 39.0782C19.8717 39.0782 19.824 39.0306 19.7764 39.0306C19.6811 38.9829 19.5381 38.9829 19.4428 38.9352C19.3475 38.8876 19.2045 38.8876 19.1092 38.8876C19.0139 38.8876 18.8709 38.8399 18.7756 38.8399H18.5373C18.3943 38.8399 18.299 38.8399 18.2037 38.8876C18.1084 38.8876 17.9654 38.9352 17.8701 38.9352C17.7748 38.9829 17.6318 38.9829 17.5365 39.0306C17.4412 39.0782 17.3459 39.1259 17.2029 39.1735L16.917 39.3165C13.2475 41.6993 15.4396 47.3228 17.9178 48.9431C16.9646 49.1337 16.0115 49.3243 15.7256 49.5149L15.6779 49.5626C16.3451 49.9915 17.06 50.3251 17.8225 50.611C18.8232 50.9446 19.9193 51.2306 20.3959 51.3735C21.6826 51.6595 23.017 51.7548 24.3514 51.6595C31.3092 51.1829 37.0279 45.8454 38.0764 38.8876C38.124 39.0306 38.124 39.1735 38.1717 39.3165C38.2193 39.6024 38.267 39.8884 38.3146 40.222C38.3623 40.3649 38.3623 40.5079 38.3623 40.6509V40.6985C38.3623 40.8415 38.41 40.9845 38.41 41.1274C38.41 41.3181 38.4576 41.461 38.4576 41.6517V43.6532C38.4576 43.7962 38.41 43.8915 38.41 44.0345V44.1774C38.41 44.3204 38.3623 44.4634 38.3623 44.654C38.3146 44.797 38.3146 44.9399 38.267 45.0829V45.1306C38.2193 45.2735 38.2193 45.4165 38.1717 45.5595V45.6071C38.124 45.7501 38.124 45.8931 38.0764 46.036V46.0837L37.9334 46.5126V46.5602C37.8857 46.7032 37.8381 46.8938 37.7904 47.0368C37.7428 47.1798 37.6951 47.3228 37.5998 47.5134C37.5522 47.6563 37.5045 47.847 37.4092 47.9899C37.3615 48.1329 37.2662 48.2759 37.2186 48.4665C37.1709 48.6095 37.0756 48.7524 37.0279 48.8954C37.0279 48.9431 36.9803 48.9907 36.9803 48.9907C36.9803 48.9907 36.9803 49.0384 36.9326 49.0384C35.9318 51.0876 34.4068 52.8985 32.5006 54.3282C32.3576 54.4235 32.2623 54.5188 32.1193 54.6142C32.0717 54.6618 32.024 54.6618 32.024 54.7095C31.9287 54.8048 31.7857 54.8524 31.6904 54.9478L31.7381 55.0431C31.9764 54.9954 32.167 54.9954 32.4053 54.9478C32.8342 54.9001 33.2154 54.8048 33.6443 54.7095C33.7396 54.7095 33.8826 54.6618 33.9779 54.6142C34.0732 54.6142 34.1209 54.5665 34.2162 54.5665C34.3115 54.5665 34.4545 54.5188 34.5498 54.5188C34.6451 54.4712 34.7404 54.4712 34.8357 54.4235C36.4084 54.0423 37.9334 53.5181 39.4107 52.8985C36.885 56.3298 33.549 59.0938 29.6412 60.9048C31.4521 60.7618 33.2631 60.4759 35.0264 59.9517C41.3646 58.0931 46.7021 53.804 49.8951 48.0376C49.2279 51.6595 47.7982 55.1384 45.6537 58.1884C47.1787 57.1876 48.5607 55.9962 49.8475 54.7095C53.374 51.0399 55.7092 46.322 56.4717 41.3181C56.9959 43.7962 57.1865 46.3696 56.9482 48.8954C68.3381 33.0259 57.9014 16.5845 53.517 12.2478C53.517 12.2001 53.4693 12.2001 53.4693 12.1524C53.4693 12.3431 53.4693 12.5337 53.4217 12.7243C53.374 13.1056 53.3264 13.4392 53.2787 13.7728C53.1834 14.1063 53.0881 14.4876 52.9928 14.8212C52.8975 15.1548 52.7545 15.4884 52.6115 15.822C52.4686 16.1556 52.3256 16.4892 52.135 16.7751C51.9443 17.061 51.7537 17.3946 51.5631 17.6806C51.3725 17.9665 51.1342 18.2524 50.8959 18.5384C50.6576 18.8243 50.4193 19.0626 50.1334 19.3485C49.9904 19.4915 49.8475 19.6345 49.6568 19.7298C49.5139 19.8251 49.4186 19.9204 49.2756 20.0634C48.9897 20.3017 48.7037 20.4923 48.3701 20.6829C48.0842 20.8735 47.7506 21.0642 47.417 21.2071L46.4162 21.636C46.0826 21.779 45.749 21.8743 45.4154 21.9696C45.0818 22.0649 44.7006 22.1603 44.367 22.2079C43.9857 22.2556 43.6521 22.3032 43.3186 22.3509C43.0803 22.3509 42.7943 22.3985 42.5561 22.3985C42.1748 22.3985 41.8412 22.3509 41.5076 22.3509C41.1264 22.3032 40.7928 22.2556 40.4592 22.2079C40.0779 22.1603 39.7443 22.0649 39.4107 21.922C39.7443 21.8743 40.1256 21.8743 40.4592 21.779C40.8404 21.7313 41.174 21.636 41.5076 21.5407C41.8412 21.4454 42.2225 21.3501 42.5084 21.2071L43.5092 20.7782C43.8428 20.6353 44.1287 20.4446 44.4623 20.254C44.7482 20.0634 45.0818 19.8251 45.3678 19.6345C45.6537 19.3962 45.9396 19.1579 46.1779 18.9196C46.4639 18.6813 46.7021 18.3954 46.9404 18.1571C47.1787 17.8712 47.417 17.5853 47.6076 17.2993C47.6553 17.2517 47.6553 17.204 47.7029 17.1563C47.8459 16.9181 48.0365 16.6321 48.1795 16.3938C48.3701 16.0603 48.5131 15.7743 48.6561 15.4407C48.799 15.1071 48.942 14.7735 49.0373 14.4399L49.3232 13.4392C49.3709 13.0579 49.4662 12.7243 49.4662 12.3907C49.5139 12.0095 49.5139 11.6759 49.5139 11.3423C49.5139 11.104 49.5139 10.8181 49.4662 10.5798C49.4186 10.1985 49.3709 9.86494 49.3232 9.53135C49.2756 9.1501 49.1803 8.8165 49.085 8.48291C48.9896 8.14932 48.8467 7.81572 48.7514 7.48213C48.6084 7.14853 48.4654 6.81494 48.3225 6.529C48.1318 6.19541 47.9889 5.90947 47.7982 5.57588C47.6076 5.28994 47.3693 5.004 47.1787 4.71807C46.9404 4.43213 46.7021 4.19385 46.4639 3.90791C46.3209 3.76494 46.1779 3.62197 46.035 3.52666C45.3201 2.95479 44.6053 2.47822 43.8428 2.00166C43.7475 1.954 43.6521 1.90635 43.5092 1.85869C42.8896 1.33447 42.4131 1.1915 41.9365 1.00088Z" fill="#DF234F"/>
</svg>
