<svg width="67" height="67" viewBox="0 0 67 67" fill="none" xmlns="http://www.w3.org/2000/svg">
<path d="M59.8421 42.2671C59.6903 42.2671 59.5395 42.2273 59.4066 42.1499L58.0195 41.3291C57.8122 41.2134 57.9132 41.1721 57.9818 41.1485C58.2582 41.0522 58.3142 41.0297 58.6089 40.8633C58.6397 40.846 58.68 40.8523 58.712 40.8711L59.7772 41.504C59.797 41.5145 59.8191 41.5201 59.8416 41.5201C59.864 41.5201 59.8861 41.5145 59.9059 41.504L64.0605 39.1061C64.08 39.0945 64.0962 39.0781 64.1074 39.0583C64.1186 39.0386 64.1244 39.0163 64.1243 38.9935V34.1989C64.1243 34.1758 64.1184 34.1532 64.1072 34.1331C64.0959 34.113 64.0796 34.0962 64.0599 34.0842L59.907 31.6885C59.8873 31.6776 59.8653 31.672 59.8429 31.672C59.8204 31.672 59.7984 31.6776 59.7787 31.6885L55.6263 34.0847C55.6066 34.0967 55.5903 34.1134 55.5788 34.1333C55.5674 34.1533 55.5612 34.1758 55.5609 34.1989V38.9935C55.5609 39.0396 55.5865 39.0831 55.6263 39.1045L56.7643 39.7625C57.3819 40.0708 57.7604 39.7075 57.7604 39.3422V34.6077C57.7604 34.5412 57.8143 34.4883 57.8808 34.4883H58.4079C58.4733 34.4883 58.5277 34.5412 58.5277 34.6077V39.3422C58.5277 40.166 58.0791 40.6387 57.2976 40.6387C57.0574 40.6387 56.8684 40.6387 56.3408 40.3791L55.2515 39.752C55.119 39.6748 55.0091 39.5641 54.9327 39.4311C54.8562 39.2982 54.816 39.1475 54.816 38.9941V34.1994C54.816 33.8879 54.982 33.5974 55.2515 33.4425L59.4061 31.0415C59.5399 30.9686 59.6899 30.9304 59.8423 30.9304C59.9948 30.9304 60.1448 30.9686 60.2786 31.0415L64.4331 33.4425C64.7022 33.598 64.8692 33.8885 64.8692 34.1994V38.9941C64.8689 39.1475 64.8285 39.2981 64.752 39.4311C64.6756 39.564 64.5656 39.6747 64.4331 39.752L60.2786 42.1504C60.146 42.2273 59.9954 42.2676 59.8421 42.2671ZM61.1261 38.9637C59.3071 38.9637 58.9266 38.1288 58.9266 37.429C58.9267 37.3972 58.9395 37.3667 58.962 37.3442C58.9846 37.3217 59.0151 37.3091 59.047 37.3091H59.584C59.6128 37.309 59.6406 37.3192 59.6625 37.3378C59.6844 37.3564 59.6989 37.3823 59.7034 37.4107C59.784 37.9577 60.0263 38.2335 61.1261 38.2335C62.0007 38.2335 62.3734 38.0357 62.3734 37.5708C62.3734 37.3028 62.2677 37.1045 60.9078 36.971C59.7709 36.8584 59.0679 36.6077 59.0679 35.6975C59.0679 34.8594 59.7746 34.359 60.9586 34.359C62.2897 34.359 62.9482 34.8212 63.0314 35.8126C63.0327 35.8293 63.0306 35.8461 63.0252 35.8619C63.0198 35.8778 63.0112 35.8923 63 35.9047C62.9886 35.9166 62.975 35.9262 62.9599 35.9327C62.9448 35.9393 62.9285 35.9428 62.912 35.943H62.3724C62.3451 35.943 62.3187 35.9337 62.2975 35.9167C62.2763 35.8996 62.2615 35.8758 62.2556 35.8493C62.1258 35.2735 61.8118 35.0898 60.958 35.0898C60.0028 35.0898 59.8918 35.4232 59.8918 35.6718C59.8918 35.9738 60.0227 36.0618 61.3129 36.2324C62.5896 36.4015 63.1963 36.6402 63.1963 37.5379C63.1968 38.445 62.442 38.9637 61.1261 38.9637ZM51.2875 35.8189C51.4514 35.7231 51.5524 35.5483 51.5524 35.3583V34.1261C51.5524 33.9366 51.4519 33.7618 51.2875 33.666L46.9095 31.1242C46.8285 31.0771 46.7366 31.0522 46.643 31.052C46.5493 31.0519 46.4573 31.0764 46.3761 31.1231L41.9709 33.6665C41.8901 33.7133 41.823 33.7804 41.7763 33.8613C41.7297 33.9421 41.7051 34.0338 41.705 34.1271V39.2129C41.705 39.4039 41.8076 39.5808 41.974 39.6756L46.3515 42.1698C46.5127 42.2624 46.7106 42.2629 46.8734 42.1729L49.5209 40.701C49.5622 40.6781 49.5965 40.6447 49.6206 40.6042C49.6447 40.5636 49.6575 40.5174 49.6578 40.4703C49.6581 40.4232 49.6459 40.3768 49.6224 40.3359C49.5989 40.2951 49.565 40.2612 49.5241 40.2378L45.0916 37.6939C45.0509 37.6707 45.0171 37.6372 44.9936 37.5967C44.9701 37.5563 44.9577 37.5103 44.9576 37.4635V35.8691C44.9576 35.7739 45.0084 35.6865 45.0906 35.6394L46.4709 34.8437C46.5112 34.8203 46.557 34.808 46.6036 34.808C46.6502 34.808 46.6959 34.8203 46.7363 34.8437L48.1166 35.6394C48.157 35.6625 48.1907 35.696 48.2141 35.7363C48.2376 35.7767 48.2499 35.8225 48.25 35.8691V37.1233C48.2498 37.1702 48.2619 37.2163 48.2853 37.257C48.3086 37.2977 48.3423 37.3314 48.383 37.3548C48.4236 37.3782 48.4697 37.3904 48.5166 37.3902C48.5635 37.39 48.6095 37.3774 48.6499 37.3536L51.2875 35.8189ZM46.5776 35.5802C46.5932 35.5715 46.6108 35.5669 46.6287 35.5669C46.6465 35.5669 46.6641 35.5715 46.6797 35.5802L47.5251 36.0686C47.5565 36.0869 47.5758 36.1209 47.5758 36.157V37.1332C47.5758 37.1699 47.5565 37.2034 47.5251 37.2217L46.6797 37.7096C46.6642 37.7186 46.6466 37.7233 46.6287 37.7233C46.6108 37.7233 46.5931 37.7186 46.5776 37.7096L45.7328 37.2217C45.7172 37.2128 45.7042 37.1999 45.6952 37.1844C45.6862 37.1689 45.6815 37.1512 45.6815 37.1332V36.157C45.6815 36.1209 45.7009 36.0869 45.7328 36.0686L46.5776 35.5802ZM35.1138 37.6111C35.1138 37.6583 35.0887 37.7022 35.0474 37.7263L33.5346 38.5983C33.5145 38.6102 33.4915 38.6164 33.4682 38.6164C33.4448 38.6164 33.4218 38.6102 33.4017 38.5983L31.8889 37.7263C31.8688 37.7146 31.852 37.6978 31.8403 37.6776C31.8287 37.6574 31.8225 37.6345 31.8225 37.6111V35.8639C31.8225 35.8168 31.8481 35.7723 31.8889 35.7482L33.4017 34.8751C33.4218 34.8631 33.4449 34.8567 33.4684 34.8567C33.4919 34.8567 33.515 34.8631 33.5352 34.8751L35.0484 35.7482C35.0685 35.7602 35.0851 35.7771 35.0966 35.7974C35.1082 35.8177 35.1143 35.8406 35.1144 35.8639V37.6111H35.1138ZM35.5226 24.6739C35.4821 24.6517 35.4365 24.6404 35.3903 24.6411C35.344 24.6419 35.2988 24.6545 35.2589 24.6779C35.2191 24.7014 35.186 24.7347 35.1628 24.7747C35.1397 24.8147 35.1273 24.8601 35.1269 24.9063V31.6665C35.1268 31.6991 35.1182 31.7311 35.1019 31.7593C35.0857 31.7876 35.0624 31.8112 35.0343 31.8277C35.0059 31.8439 34.9738 31.8524 34.9411 31.8524C34.9084 31.8524 34.8763 31.8439 34.8479 31.8277L33.7445 31.1917C33.6637 31.1452 33.5721 31.1207 33.4789 31.1207C33.3856 31.1207 33.294 31.1452 33.2132 31.1917L28.8069 33.7346C28.726 33.7813 28.6588 33.8485 28.612 33.9295C28.5652 34.0104 28.5406 34.1022 28.5405 34.1957V39.283C28.5405 39.473 28.6421 39.6484 28.8064 39.7442L33.2127 42.2886C33.3771 42.3839 33.5802 42.3839 33.7451 42.2886L38.1524 39.7442C38.2332 39.6973 38.3003 39.63 38.3469 39.5491C38.3936 39.4682 38.4182 39.3764 38.4183 39.283V26.6017C38.4183 26.4091 38.3136 26.2311 38.1456 26.1369L35.5226 24.6739ZM20.0153 31.0959C20.0961 31.0491 20.1878 31.0245 20.2812 31.0245C20.3746 31.0245 20.4663 31.0491 20.5471 31.0959L24.9534 33.6383C25.1178 33.7335 25.2193 33.9094 25.2193 34.0994V39.1883C25.2193 39.3783 25.1178 39.5541 24.9534 39.6494L20.5476 42.1938C20.4666 42.2404 20.3749 42.2649 20.2815 42.2649C20.188 42.2649 20.0963 42.2404 20.0153 42.1938L15.6106 39.6494C15.5298 39.6025 15.4627 39.5353 15.416 39.4543C15.3694 39.3734 15.3448 39.2817 15.3447 39.1883V34.0989C15.3447 33.9094 15.4462 33.7335 15.6106 33.6383L20.0153 31.0959ZM12.0025 34.057C12.0025 33.8654 11.902 33.6896 11.7366 33.5948L7.33188 31.0598C7.2579 31.0169 7.17446 30.993 7.089 30.9902H7.04346C6.95801 30.9931 6.87459 31.017 6.80059 31.0598L2.39534 33.5948C2.3143 33.6417 2.24702 33.7091 2.20025 33.7902C2.15349 33.8714 2.12888 33.9634 2.12891 34.057L2.13833 40.8826C2.13833 40.9779 2.18805 41.0664 2.27128 41.1124C2.31113 41.1366 2.35684 41.1494 2.40345 41.1494C2.45005 41.1494 2.49577 41.1366 2.53562 41.1124L5.1528 39.6133C5.31821 39.5149 5.41923 39.3416 5.41923 39.1516V35.9628C5.41923 35.7723 5.51973 35.597 5.68462 35.5017L6.79954 34.86C6.88012 34.8126 6.97198 34.7878 7.06545 34.7882C7.15652 34.7882 7.2497 34.8113 7.33083 34.86L8.4447 35.5017C8.60959 35.597 8.71113 35.7723 8.71113 35.9628V39.1516C8.71113 39.3416 8.8132 39.5159 8.97756 39.6133L11.5947 41.1124C11.6351 41.1355 11.6808 41.1476 11.7273 41.1474C11.7738 41.1473 11.8194 41.135 11.8597 41.1118C11.8999 41.0885 11.9334 41.0552 11.9567 41.0149C11.98 40.9747 11.9924 40.9291 11.9926 40.8826L12.0025 34.057Z" fill="#83CD29"/>
</svg>
