<svg width="61" height="61" viewBox="0 0 61 61" fill="none" xmlns="http://www.w3.org/2000/svg">
<path d="M44.7058 43.8971C45.0799 40.7837 44.9679 40.3267 47.2869 40.8314L47.8755 40.8828C49.6588 40.9638 51.9915 40.5959 53.3621 39.9592C56.3125 38.5901 58.0615 36.305 55.153 36.905C48.5174 38.2741 48.0613 36.0271 48.0613 36.0271C55.0682 25.6309 57.9972 12.4335 55.4685 9.20285C48.5727 0.391688 36.6362 4.55827 36.4365 4.66598L36.3727 4.67789C35.0616 4.40577 33.5943 4.24327 31.9459 4.21658C28.9431 4.16702 26.6646 5.00386 24.9361 6.31441C24.9361 6.31441 3.64188 -2.45863 4.63265 17.3473C4.84329 21.5606 10.6717 49.2284 17.6237 40.8714C20.1648 37.8157 22.62 35.2317 22.62 35.2317C23.8391 36.0414 25.2993 36.4551 26.83 36.3064L26.9486 36.2054C26.9115 36.5847 26.9277 36.9559 26.9958 37.3953C25.2054 39.3964 25.7315 39.7476 22.1511 40.4844C18.5283 41.2307 20.6566 42.5598 22.0458 42.9073C23.7304 43.3285 27.6273 43.9252 30.2608 40.2395L30.1559 40.6598C30.8584 41.2221 30.8112 44.6996 30.9103 47.1839C31.0099 49.6687 31.1762 51.9872 31.6828 53.3545C32.1894 54.7212 32.787 58.2421 37.4926 57.2337C41.4252 56.393 44.4318 55.1802 44.7058 43.8971Z" fill="black"/>
<path d="M35.9604 59.6921C33.8793 59.6921 32.5239 58.8872 31.7009 58.1099C30.4585 56.9376 29.9658 55.4273 29.6712 54.5252L29.544 54.1487C28.9512 52.5484 28.7501 50.2442 28.6309 47.2772C28.6128 46.8316 28.6004 46.3726 28.5866 45.8861C28.5766 45.5301 28.5642 45.0835 28.5461 44.6165C27.7963 44.974 27.0004 45.2255 26.1814 45.3638C24.714 45.6144 23.1366 45.5334 21.492 45.1221C20.3316 44.8319 19.1259 44.2305 18.4387 43.3017C16.4357 45.0559 14.5251 44.8181 13.4843 44.4707C11.6481 43.8583 10.0049 42.1374 8.4604 39.2109C7.36002 37.1259 6.29586 34.4095 5.29698 31.1365C3.55753 25.4368 2.45238 19.4335 2.35421 17.4625C2.04539 11.2934 3.70621 6.88134 7.28949 4.35031C12.942 0.357672 21.5063 2.7057 24.6287 3.77177C26.7266 2.50745 29.1947 1.8922 31.9835 1.93652C33.4814 1.96083 34.9077 2.09236 36.2326 2.32873C37.6146 1.89411 40.3443 1.27029 43.4692 1.30937C49.2265 1.37799 53.9974 3.62165 57.2652 7.79777C59.5975 10.7772 58.4442 17.034 57.5497 20.4986C56.2906 25.372 54.0846 30.5551 51.3749 35.0672C52.1107 35.0724 53.1767 34.9842 54.6922 34.6711C57.6822 34.054 58.5567 35.6571 58.794 36.3748C59.7447 39.2542 55.612 41.4302 54.3229 42.0288C52.6711 42.7956 49.9781 43.2626 47.7725 43.1616L47.6763 43.1554L47.0968 43.1044L47.0396 43.5876L46.9843 44.0599C46.8361 49.7782 46.0192 53.3996 44.3384 55.7924C42.5766 58.301 40.128 59.0039 37.9711 59.4662C37.2352 59.6235 36.5666 59.6921 35.9604 59.6921V59.6921ZM31.5808 38.8801C32.9243 39.9553 33.042 41.9783 33.1473 45.7588C33.1606 46.2306 33.173 46.6772 33.1897 47.0942C33.2402 48.3571 33.3589 51.3141 33.8221 52.5637C33.8874 52.7405 33.946 52.9197 34.008 53.1098C34.5241 54.6901 34.7829 55.4826 37.0146 55.0056C38.888 54.6038 39.8511 54.2436 40.605 53.1703C41.7006 51.6101 42.3135 48.4714 42.426 43.8416L44.7054 43.8969L42.4417 43.6253L42.5084 43.0601C42.7252 41.1967 42.8816 39.8509 44.1268 38.9607C45.1262 38.2468 46.2647 38.3159 47.1716 38.4793C46.1751 37.7264 45.8996 36.8433 45.8262 36.4811L45.6361 35.5447L46.1703 34.7521C49.2475 30.1867 51.7847 24.5756 53.1324 19.3573C54.5173 13.9955 54.0951 11.148 53.6728 10.6095C48.0832 3.46724 38.3904 6.41621 37.3782 6.75076L37.2071 6.84321L36.3493 7.00286L35.9099 6.91184C34.6985 6.66021 33.3527 6.52106 31.9101 6.4977C29.6436 6.45958 27.815 6.99523 26.3158 8.13279L25.2754 8.9215L24.0683 8.42445C21.4891 7.36981 13.9137 5.24959 9.9163 8.08084C7.69743 9.65255 6.68664 12.7321 6.91157 17.2342C6.98592 18.7206 7.99575 24.3474 9.66182 29.8045C11.9641 37.3461 14.0562 39.8514 14.9297 40.1425C15.0822 40.194 15.4778 39.8866 15.8714 39.4139C17.5127 37.4463 19.2123 35.5281 20.9678 33.6618L22.2879 32.2726L23.8839 33.3329C24.5272 33.7604 25.2368 34.003 25.9655 34.0487L29.7718 30.8024L29.2204 36.4296C29.208 36.5559 29.2018 36.728 29.2514 37.0473L29.4172 38.1138L28.6976 38.9183L28.6147 39.0117L30.7059 39.9767L31.5808 38.8801V38.8801Z" fill="black"/>
<path d="M55.153 36.905C48.5168 38.2741 48.0608 36.0271 48.0608 36.0271C55.0677 25.6304 57.9966 12.4325 55.4689 9.20286C48.5731 0.392169 36.6357 4.55876 36.4365 4.66693L36.3721 4.67837C35.0611 4.40626 33.5938 4.24422 31.9444 4.21754C28.9416 4.16845 26.6641 5.00482 24.9356 6.31536C24.9356 6.31536 3.64086 -2.4572 4.63116 17.3483C4.8418 21.562 10.6702 49.2298 17.6222 40.8728C20.1633 37.8171 22.6181 35.2332 22.6181 35.2332C23.8376 36.0429 25.2973 36.4565 26.8275 36.3078L26.9467 36.2068C26.9095 36.5861 26.9267 36.9574 26.9943 37.3968C25.2034 39.3979 25.7295 39.7491 22.1491 40.4859C18.5263 41.2321 20.6546 42.5613 22.0443 42.9087C23.7284 43.33 27.6258 43.9266 30.2588 40.2409L30.1535 40.6612C30.8554 41.2236 31.3482 44.3174 31.2658 47.122C31.1828 49.9266 31.1276 51.8523 31.6808 53.3564C32.2337 54.8604 32.7846 58.244 37.4911 57.2356C41.4237 56.393 43.4615 54.2089 43.7455 50.5661C43.9466 47.976 44.4017 48.3591 44.4308 46.0435L44.7963 44.9474C45.2176 41.4366 44.863 40.3043 47.2864 40.8309L47.8749 40.8824C49.6582 40.9634 51.9919 40.5955 53.3621 39.9588C56.312 38.5906 58.0614 36.305 55.153 36.905V36.905Z" fill="#336791"/>
<path d="M36.1981 58.287C32.2751 58.287 31.0322 55.1803 30.5237 53.9098C29.7793 52.0479 29.6187 44.8222 29.7846 38.8967C29.787 38.7967 29.8092 38.6983 29.8499 38.607C29.8906 38.5157 29.9489 38.4333 30.0216 38.3647C30.0942 38.296 30.1798 38.2424 30.2732 38.2069C30.3667 38.1714 30.4662 38.1548 30.5661 38.158C30.6659 38.1607 30.7642 38.1831 30.8554 38.2238C30.9465 38.2645 31.0288 38.3229 31.0974 38.3954C31.166 38.4679 31.2196 38.5533 31.2552 38.6466C31.2908 38.7399 31.3077 38.8393 31.3048 38.9391C31.1137 45.7735 31.3849 51.9669 31.9358 53.3451C32.7955 55.4939 34.0994 57.3735 37.7856 56.5838C41.285 55.8332 42.5955 54.5065 43.1793 51.1224C43.6273 48.5256 44.5132 41.1379 44.6223 39.6801C44.6296 39.5805 44.6565 39.4833 44.7015 39.3941C44.7464 39.3049 44.8085 39.2254 44.8842 39.1602C44.9599 39.0951 45.0477 39.0455 45.1426 39.0143C45.2375 38.9832 45.3377 38.971 45.4373 38.9786C45.6383 38.9939 45.825 39.0882 45.9565 39.241C46.0881 39.3938 46.1536 39.5925 46.1388 39.7936C46.0249 41.3114 45.1432 48.6848 44.6781 51.3812C43.989 55.3781 42.2071 57.1909 38.1044 58.0707C37.4072 58.2198 36.7738 58.2866 36.1981 58.287V58.287ZM14.9263 43.1128C14.5834 43.1116 14.2429 43.0553 13.9179 42.946C11.3697 42.0958 8.94258 37.9459 6.70369 30.6102C4.9995 25.0263 3.91961 19.198 3.82477 17.3036C3.54408 11.6878 4.98997 7.7147 8.12337 5.49535C14.322 1.10335 24.7497 5.28567 25.1905 5.46581C25.3772 5.54208 25.526 5.68942 25.6041 5.87541C25.6823 6.06139 25.6833 6.27079 25.607 6.45753C25.5307 6.64428 25.3834 6.79307 25.1974 6.87118C25.0114 6.9493 24.802 6.95033 24.6153 6.87405C24.5147 6.83306 14.5155 2.82708 8.99929 6.73823C6.32005 8.63781 5.09005 12.1672 5.3431 17.2278C5.42269 18.8239 6.43157 24.5121 8.15768 30.166C10.1564 36.715 12.431 40.8472 14.3987 41.5035C14.7076 41.6064 15.6473 41.9195 16.9908 40.304C18.5574 38.4224 20.1828 36.5906 21.8646 34.8111C22.0053 34.6707 22.1954 34.591 22.3941 34.5891C22.5928 34.5871 22.7845 34.663 22.928 34.8005C23.0715 34.938 23.1554 35.1262 23.1619 35.3249C23.1684 35.5235 23.0968 35.7168 22.9626 35.8633C22.9397 35.8872 20.6527 38.2781 18.1602 41.2766C16.9798 42.6963 15.8484 43.1128 14.9263 43.1128V43.1128ZM48.0136 36.7054C47.8757 36.7052 47.7405 36.6676 47.6224 36.5965C47.5042 36.5254 47.4077 36.4236 47.343 36.3018C47.2783 36.1801 47.2479 36.0431 47.255 35.9054C47.2621 35.7677 47.3066 35.6346 47.3835 35.5202C54.4667 25.0096 56.9529 12.3097 54.8236 9.58855C52.1434 6.16397 48.3591 4.37543 43.5748 4.27202C40.0326 4.19577 37.217 5.10028 36.7567 5.25802L36.6409 5.3052C36.1781 5.45056 35.8231 5.19702 35.6892 4.9006C35.6128 4.73077 35.6012 4.53887 35.6566 4.3611C35.712 4.18332 35.8306 4.03196 35.9899 3.93556C36.0118 3.9227 36.0814 3.89315 36.1943 3.85169L36.1843 3.85455L36.1943 3.85121C36.9764 3.5648 39.8348 2.70746 43.3752 2.74797C48.6688 2.8042 53.0418 4.84532 56.0203 8.65163C57.4295 10.4526 57.4328 14.6015 56.0293 20.0353C54.5987 25.5753 51.9066 31.529 48.644 36.3704C48.4982 36.5882 48.258 36.7054 48.0136 36.7054ZM48.3757 41.5711C47.1662 41.5711 46.082 41.4005 45.433 41.0117C44.7658 40.6118 44.6385 40.0685 44.6219 39.7802C44.4398 36.5825 46.204 36.0259 47.1038 35.7718C46.9785 35.5822 46.8002 35.3591 46.6158 35.129C46.0911 34.4732 45.3724 33.5754 44.8187 32.2324C44.7319 32.0227 44.4603 31.5352 44.1458 30.9705C42.4402 27.9119 38.8912 21.5474 41.1711 18.2882C42.2262 16.7799 44.3273 16.1861 47.4231 16.5173C46.5124 13.7427 42.1757 5.06359 31.8852 4.89488C28.7905 4.84342 26.2523 5.79511 24.3451 7.7209C20.0751 12.0333 20.2295 19.8361 20.2319 19.9142C20.2345 20.014 20.2174 20.1134 20.1817 20.2066C20.1459 20.2999 20.0921 20.3851 20.0234 20.4576C19.9547 20.53 19.8723 20.5882 19.7811 20.6288C19.6899 20.6695 19.5916 20.6917 19.4918 20.6944C19.3919 20.697 19.2926 20.6799 19.1994 20.6442C19.1061 20.6084 19.0209 20.5546 18.9484 20.4859C18.876 20.4172 18.8178 20.3348 18.7772 20.2436C18.7365 20.1524 18.7143 20.0541 18.7116 19.9543C18.7021 19.6078 18.5429 11.4195 23.2647 6.65054C25.4745 4.4188 28.3835 3.31699 31.9105 3.37465C38.4937 3.48283 42.7313 6.82973 45.1265 9.61809C47.7376 12.6571 49.0177 16.0093 49.123 17.1282C49.2016 17.9603 48.6045 18.1266 48.4839 18.1514L48.2094 18.1576C45.1713 17.671 43.2222 18.0089 42.4163 19.1603C40.6821 21.6389 44.0395 27.6593 45.473 30.2304C45.839 30.8861 46.103 31.3603 46.2241 31.6529C46.6949 32.7948 47.3092 33.562 47.8024 34.1787C48.2366 34.721 48.6126 35.1914 48.747 35.7433C48.8094 35.8529 49.6953 37.1634 54.9523 36.0783C56.27 35.8066 57.0601 36.0387 57.3018 36.7693C57.7769 38.2061 55.111 39.8822 53.6351 40.5675C52.3126 41.1823 50.2019 41.5711 48.3757 41.5711V41.5711ZM46.1378 39.6549C46.3046 39.8231 47.1391 40.1133 48.8671 40.039C50.4035 39.9732 52.0238 39.6392 52.996 39.1878C54.2394 38.6103 55.0695 37.9645 55.4994 37.5237L55.2611 37.5675C51.8999 38.2614 49.5223 38.169 48.1946 37.2926C48.1054 37.2336 48.0195 37.1698 47.9373 37.1015C47.7934 37.1582 47.6604 37.1953 47.5656 37.222C46.8126 37.4331 46.0339 37.6519 46.1378 39.6549ZM24.4247 43.9034C23.5897 43.9034 22.7109 43.7895 21.8136 43.5651C20.8838 43.3325 19.3164 42.6324 19.3402 41.4825C19.3674 40.1924 21.2436 39.8055 21.9499 39.6601C24.5014 39.1345 24.6677 38.9238 25.465 37.9111C25.6976 37.6161 25.9868 37.2487 26.3814 36.8084C26.9671 36.1526 27.6071 35.8205 28.2839 35.8205C28.7552 35.8205 29.1417 35.9801 29.3971 36.0864C30.2111 36.4238 30.8902 37.2397 31.1695 38.2152C31.4216 39.0954 31.301 39.9427 30.8311 40.6009C29.2885 42.7611 27.0729 43.9034 24.4247 43.9034ZM20.9829 41.5478C21.2122 41.7251 21.6716 41.9619 22.1829 42.0896C22.9602 42.2841 23.7141 42.3827 24.4251 42.3827C26.5916 42.3827 28.331 41.4858 29.5944 39.7168C29.858 39.348 29.7788 38.8795 29.7083 38.6331C29.5606 38.117 29.1936 37.6476 28.8157 37.4908C28.6108 37.406 28.4407 37.3412 28.2843 37.3412C28.2005 37.3412 27.945 37.3412 27.5152 37.822C27.2185 38.1556 26.9334 38.4993 26.6602 38.8523C25.6671 40.1133 25.2119 40.5413 22.2573 41.1499C21.5362 41.2976 21.1664 41.4482 20.9829 41.5478ZM26.8299 38.0403C26.6483 38.04 26.4729 37.9748 26.3353 37.8565C26.1976 37.7381 26.1068 37.5744 26.0793 37.395C26.0604 37.2688 26.0477 37.1417 26.0412 37.0142C24.1044 36.978 22.2358 36.1469 20.8171 34.6667C19.0233 32.7952 18.207 30.2023 18.5777 27.553C18.9804 24.676 18.8298 22.1364 18.7488 20.772C18.7264 20.3927 18.7102 20.1187 18.7112 19.929C18.7126 19.6883 18.7174 19.0502 20.8504 17.9689C21.6091 17.5843 23.1303 16.9133 24.7921 16.7413C27.5452 16.4568 29.3599 17.683 29.9032 20.1944C31.3696 26.975 30.0195 29.974 29.0335 32.1643C28.85 32.5722 28.6766 32.9573 28.5379 33.3304L28.4154 33.6592C27.8945 35.056 27.4442 36.2627 27.5824 37.1639C27.5975 37.2626 27.5931 37.3633 27.5694 37.4603C27.5456 37.5573 27.5029 37.6486 27.4439 37.7291C27.3848 37.8096 27.3104 37.8777 27.225 37.9295C27.1396 37.9812 27.0449 38.0156 26.9462 38.0308L26.8299 38.0403ZM20.2366 20.1396L20.2662 20.6824C20.3501 22.0997 20.5064 24.737 20.0832 27.7642C19.7777 29.9492 20.4449 32.0818 21.9146 33.6144C23.076 34.8259 24.6043 35.4945 26.1751 35.4945H26.2075C26.3833 34.7534 26.6755 33.9709 26.99 33.1279L27.1115 32.801C27.2683 32.3797 27.4518 31.9717 27.6462 31.54C28.5951 29.4317 29.7765 26.8072 28.4159 20.5161C28.1466 19.2699 27.4932 18.5489 26.4196 18.3111C24.214 17.824 20.9272 19.4829 20.2366 20.1396V20.1396ZM24.8259 19.817C24.7878 20.0858 25.3182 20.8035 26.0102 20.8993C26.7007 20.996 27.2917 20.4346 27.3293 20.1659C27.367 19.8971 26.837 19.6006 26.1451 19.5044C25.4536 19.4081 24.8626 19.5482 24.8259 19.817ZM26.1689 21.1638L25.9749 21.1504C25.546 21.0909 25.1123 20.8206 24.8154 20.427C24.7111 20.2888 24.5409 20.021 24.5748 19.7817C24.6229 19.431 25.0509 19.2208 25.7185 19.2208C25.8677 19.2208 26.0231 19.2318 26.1794 19.2537C26.5444 19.3042 26.8832 19.4095 27.1334 19.5492C27.5671 19.7913 27.599 20.0615 27.5795 20.2011C27.5261 20.5886 26.9099 21.1638 26.1689 21.1638V21.1638ZM25.078 19.8618C25.0995 20.0276 25.5103 20.5747 26.045 20.6486L26.1694 20.6572C26.6631 20.6572 27.0319 20.2688 27.0753 20.1415C27.0296 20.0548 26.7122 19.8394 26.1103 19.7555C25.9807 19.7369 25.8499 19.7275 25.719 19.7274C25.332 19.7274 25.1266 19.8146 25.078 19.8618V19.8618ZM45.8585 19.2685C45.8962 19.5373 45.3662 20.255 44.6748 20.3512C43.9837 20.4475 43.3923 19.8866 43.3542 19.6178C43.318 19.349 43.8479 19.0521 44.5389 18.9563C45.23 18.8596 45.8204 19.0002 45.8585 19.2685V19.2685ZM44.5151 20.4885C43.8498 20.4885 43.2756 19.9709 43.2284 19.635C43.1736 19.2318 43.8374 18.9254 44.5208 18.8305C44.6714 18.8096 44.8206 18.7991 44.964 18.7991C45.554 18.7991 45.9448 18.9721 45.9839 19.2513C46.0091 19.4319 45.8704 19.7107 45.6317 19.9624C45.4739 20.1277 45.1427 20.4141 44.6914 20.4766L44.5151 20.4885V20.4885ZM44.9645 19.0526C44.833 19.0526 44.6957 19.0626 44.5566 19.0817C43.8698 19.1775 43.46 19.4529 43.48 19.6007C43.5029 19.7632 43.9413 20.2354 44.5156 20.2354L44.6571 20.2254C45.0322 20.1735 45.3138 19.9285 45.4482 19.7875C45.6593 19.5659 45.7432 19.3571 45.7332 19.2861C45.7199 19.1918 45.4663 19.0526 44.9645 19.0526ZM46.8541 34.7043C46.7163 34.7044 46.5811 34.667 46.463 34.5962C46.3448 34.5253 46.2482 34.4237 46.1833 34.3021C46.1185 34.1806 46.088 34.0437 46.095 33.9061C46.102 33.7685 46.1463 33.6354 46.2231 33.521C47.8425 31.1025 47.546 28.6363 47.2596 26.2511C47.1372 25.235 47.0113 24.1842 47.0437 23.1758C47.0771 22.1383 47.2091 21.2824 47.3364 20.4547C47.4874 19.4739 47.6304 18.5474 47.5713 17.4475C47.5659 17.3478 47.5802 17.2481 47.6134 17.1539C47.6466 17.0597 47.698 16.973 47.7647 16.8987C47.8314 16.8244 47.912 16.764 48.0021 16.7209C48.0921 16.6777 48.1898 16.6528 48.2895 16.6474C48.3892 16.642 48.489 16.6563 48.5831 16.6895C48.6773 16.7227 48.764 16.7741 48.8383 16.8408C48.9126 16.9075 48.973 16.9881 49.0162 17.0782C49.0593 17.1682 49.0842 17.2659 49.0896 17.3656C49.1573 18.6227 48.9957 19.6712 48.8394 20.6858C48.7189 21.4688 48.594 22.2785 48.564 23.2244C48.5349 24.1175 48.6488 25.0659 48.7694 26.0695C49.0744 28.6058 49.4199 31.4804 47.4869 34.3669C47.4173 34.4709 47.3232 34.5561 47.2128 34.6149C47.1024 34.6738 46.9792 34.7045 46.8541 34.7043V34.7043Z" fill="white"/>
</svg>
