<svg width="49" height="49" viewBox="0 0 49 49" fill="none" xmlns="http://www.w3.org/2000/svg">
<path d="M24.5015 9.80078C17.968 9.80078 13.8861 13.0662 12.2515 19.5996C14.7007 16.3339 17.5599 15.1092 20.8257 15.9258C22.6904 16.3905 24.023 17.7426 25.4987 19.2409C27.9005 21.6783 30.6804 24.5 36.7515 24.5C43.2845 24.5 47.3669 21.2342 49.0015 14.6992C46.5518 17.9669 43.693 19.1916 40.4268 18.375C38.5626 17.9099 37.2315 16.5582 35.7539 15.0599C33.3536 12.6225 30.5744 9.80078 24.5015 9.80078ZM12.2515 24.5C5.71839 24.5 1.63607 27.7658 0.00146484 34.3008C2.4507 31.0331 5.30954 29.8085 8.5757 30.625C10.4404 31.0901 11.7729 32.4418 13.2487 33.9402C15.6505 36.3775 18.4304 39.1993 24.5015 39.1993C31.0345 39.1993 35.1169 35.9339 36.7515 29.4004C34.3018 32.6662 31.443 33.8908 28.1768 33.0743C26.3126 32.6095 24.9815 31.2574 23.5039 29.7591C21.1036 27.3217 18.3244 24.5 12.2515 24.5Z" fill="#38B2AC"/>
</svg>
