<svg width="54" height="54" viewBox="0 0 54 54" fill="none" xmlns="http://www.w3.org/2000/svg">
<path d="M9.56396 19.8281H51.6122V50.9077H9.56396V19.8281Z" fill="white"/>
<path d="M0.632812 26.9619V53.3291H53.3672V0.594727H0.632812V26.9619ZM43.1283 24.8525C44.3913 25.1456 45.5393 25.8062 46.4273 26.751C46.9162 27.2599 47.3412 27.8266 47.693 28.4385C47.693 28.506 45.4148 30.0458 44.0269 30.9064C43.9762 30.9402 43.7738 30.7208 43.5502 30.3875C43.2968 29.9503 42.9368 29.5845 42.5037 29.324C42.0707 29.0636 41.5787 28.9172 41.0737 28.8983C39.4748 28.7886 38.4455 29.6282 38.4539 31.0077C38.4407 31.3512 38.5193 31.6919 38.6817 31.9949C39.0319 32.7247 39.6858 33.1593 41.7361 34.0452C45.5119 35.6694 47.1277 36.741 48.1317 38.2639C49.2539 39.9514 49.5028 42.6768 48.7434 44.6933C47.8997 46.8871 45.8325 48.3763 42.9089 48.8699C41.5736 49.0228 40.2244 49.0087 38.8927 48.8277C36.8515 48.4912 34.9713 47.5112 33.5264 46.0307C33.0413 45.4949 32.0963 44.0985 32.1553 43.9972C32.3093 43.8829 32.4715 43.78 32.6405 43.6893L34.5938 42.6093L36.1083 41.7318L36.4247 42.2C36.9587 42.9639 37.6382 43.6148 38.4244 44.1153C40.1119 45.0013 42.4153 44.8789 43.5544 43.8538C43.9368 43.4781 44.1754 42.9802 44.2286 42.4468C44.2818 41.9134 44.1462 41.3782 43.8455 40.9344C43.4236 40.348 42.5798 39.8544 40.2216 38.825C37.5005 37.6522 36.3277 36.9266 35.2561 35.7707C34.5871 35.0079 34.0932 34.1079 33.8091 33.1339C33.5971 32.0212 33.5658 30.8816 33.7162 29.7589C34.2773 27.1307 36.2475 25.2955 39.1247 24.7513C40.4571 24.5864 41.8069 24.6234 43.1283 24.861V24.8525ZM30.7505 27.0632V29.2232H23.9034V48.7264H19.0477V29.2189H12.1837V27.1096C12.1624 26.3822 12.1793 25.6541 12.2344 24.9285C12.2681 24.8905 16.4531 24.8905 21.5156 24.8905H30.7252L30.7505 27.0632Z" fill="#007ACC"/>
</svg>
