<svg width="58" height="58" viewBox="0 0 58 58" fill="none" xmlns="http://www.w3.org/2000/svg">
<path d="M1.65686 20.4101C1.65686 20.4101 0.285249 19.4173 1.93326 18.0933L5.77033 14.6522C5.77033 14.6522 6.86961 13.4927 8.03097 14.5036L43.454 41.3866V54.278C43.454 54.278 43.4363 56.3026 40.8454 56.0796L1.65686 20.4101Z" fill="#2489CA"/>
<path d="M10.7885 28.7188L1.65662 37.0395C1.65662 37.0395 0.718652 37.7387 1.65662 38.9902L5.89606 42.854C5.89606 42.854 6.9029 43.9392 8.39187 42.7054L18.0702 35.3475L10.7885 28.7188Z" fill="#1070B3"/>
<path d="M26.8179 28.7874L43.5622 15.9708L43.4539 3.14869C43.4539 3.14869 42.7389 0.35019 40.3532 1.80789L18.0703 22.1355L26.8179 28.7874Z" fill="#0877B9"/>
<path d="M40.8447 56.0955C41.8166 57.0937 42.9957 56.7661 42.9957 56.7661L56.0443 50.3218C57.715 49.1799 57.4812 47.7639 57.4812 47.7639V9.2732C57.4812 7.58078 55.7538 6.9967 55.7538 6.9967L44.4434 1.53156C41.9725 0.000454962 40.353 1.80797 40.353 1.80797C40.353 1.80797 42.4342 0.304955 43.4538 3.14922V54.0429C43.4538 54.3931 43.3794 54.7361 43.2308 55.0461C42.9336 55.6496 42.2856 56.2106 40.7368 55.9754L40.8447 56.0955Z" fill="#3C99D4"/>
</svg>
